<svg width="374" height="381" viewBox="0 0 374 381" fill="none" xmlns="http://www.w3.org/2000/svg">
<path fill-rule="evenodd" clip-rule="evenodd" d="M133.786 361.125C139.53 360.546 146.516 359.841 150.592 357.548C158.244 353.246 164.134 348.06 170.128 342.783C176.127 337.501 182.231 332.127 190.31 327.454C196.402 323.93 201.95 322.254 207.528 320.569C212.984 318.921 218.469 317.265 224.521 313.861C228.628 311.551 232.428 308.61 236.227 305.669C239.401 303.212 242.574 300.756 245.926 298.668C251.537 295.173 261.191 293.35 267.686 293.004C271.08 292.823 274.458 292.761 277.815 292.699C289.156 292.492 300.251 292.289 310.851 287.52C311.579 287.192 312.311 286.862 313.047 286.53C319.355 283.687 325.952 280.714 332.256 278.26C335.652 276.937 338.684 274.77 341.739 272.585C345.048 270.219 348.385 267.833 352.24 266.482C358.384 264.329 367.48 262.068 374 262.068V381L0 381C8.27748 379.623 15.2117 377.612 21.8745 375.679C32.1277 372.704 41.7379 369.916 54.6106 369.916C62.7051 369.916 78.3548 367.679 86.0531 365.244C90.9763 363.687 95.014 364.167 99.374 364.685C101.679 364.959 104.075 365.244 106.739 365.244C111.458 365.244 116.126 364.235 120.779 363.229C123.435 362.655 126.086 362.082 128.739 361.698C130.198 361.487 131.927 361.313 133.786 361.125ZM3.05176e-05 0.40967H24.9197L0.000124825 0.409668L3.05176e-05 0.40967Z" fill="#D3CCC1"/>
</svg>
