<svg width="30" height="30" viewBox="0 0 30 30" fill="none" xmlns="http://www.w3.org/2000/svg">
<path d="M18 7.25H5.57629C5.30015 7.25 5.07629 7.47386 5.07629 7.75V21.4572C5.07629 21.7333 5.30015 21.9572 5.57629 21.9572H21.3598C21.6359 21.9572 21.8598 21.7333 21.8598 21.4572V13.5" stroke="#F4F0E5" stroke-linecap="round"/>
<path d="M5.60876 18.6962L10.7933 12.8636C10.9844 12.6486 11.3171 12.6388 11.5205 12.8422L15.3254 16.6471C15.5066 16.8283 15.7954 16.8432 15.9942 16.6816L18.0805 14.9865C18.2717 14.8312 18.5476 14.8383 18.7306 15.0032L21.5 17.5" stroke="#F4F0E5" stroke-linecap="round"/>
<circle cx="16.7303" cy="11.7303" r="1.23026" stroke="#F4F0E5"/>
<path d="M5.24933 10.0183H3.5C3.22386 10.0183 3 10.2422 3 10.5183V23.7064C3 23.9826 3.22386 24.2064 3.5 24.2064H19.4565C19.7327 24.2064 19.9565 23.9826 19.9565 23.7064L19.9565 22.1301" stroke="#F4F0E5"/>
<path d="M20.5 9H26.5" stroke="#F4F0E5" stroke-linecap="round"/>
<path d="M23.5 12V6" stroke="#F4F0E5" stroke-linecap="round"/>
</svg>
