<svg width="30" height="30" viewBox="0 0 30 30" fill="none" xmlns="http://www.w3.org/2000/svg">
<path d="M5.42351 8.71326H3.5C3.22386 8.71326 3 8.93711 3 9.21326V23.5C3 23.7762 3.22386 24 3.5 24H20.7695C21.0457 24 21.2695 23.7762 21.2695 23.5L21.2695 21.7629" stroke="#F4F0E5"/>
<rect x="5.65491" y="6.5" width="17.3164" height="15.1615" rx="0.5" stroke="#F4F0E5"/>
<path d="M13.2164 15.6411C13.0211 15.8363 13.0211 16.1529 13.2164 16.3482C13.4117 16.5434 13.7282 16.5434 13.9235 16.3482L13.2164 15.6411ZM13.9235 16.3482L20.3881 9.88358L19.681 9.17647L13.2164 15.6411L13.9235 16.3482Z" fill="#F4F0E5"/>
<path d="M15.7249 9.53003H19.5346C19.8107 9.53003 20.0346 9.75389 20.0346 10.03V13.8398" stroke="#F4F0E5" stroke-linecap="round"/>
</svg>
