<svg width="226" height="220" viewBox="0 0 226 220" fill="none" xmlns="http://www.w3.org/2000/svg">
<mask id="mask0_274_654" style="mask-type:alpha" maskUnits="userSpaceOnUse" x="0" y="0" width="226" height="220">
<rect width="226" height="220" fill="#D9D9D9"/>
</mask>
<g mask="url(#mask0_274_654)">
<path d="M12.4835 20.176C8.57686 18.7168 -0.504228 18.4041 -0.504228 18.4041L-0.504221 156.5L225.762 156.5L225.762 103.053C220.762 102.865 212.328 103.226 209.68 102.865C207.032 102.503 206.809 103.847 200.987 103.053C192.478 101.892 196.869 99.4764 192.956 98.3845C188.324 95.5541 185.551 93.0832 178.729 92.3214C175.145 91.9213 170.623 89.5668 164.619 88.7475C158.614 87.9283 156.704 86.5686 151.33 85.8354C145.956 85.1023 144.448 86.6564 140.011 78.5203C137.258 73.4731 128.829 73.4303 126.336 68.4105C121.651 58.9776 115.335 57.8334 111.987 56.5598C109.103 55.463 100.676 50.7958 97.3485 50.1659C89.7495 48.7275 85.7981 46.8608 77.8447 45.7758C74.1861 45.2766 71.3758 45.0115 68.6674 43.564C66.3731 42.3377 63.5235 40.9414 60.7755 39.8191C59.2414 39.1926 57.2543 39.4293 55.9176 38.7149C55.6114 38.5512 52.1808 37.7949 51.748 37.7237C48.2614 37.1508 44.8855 36.6181 41.5538 35.9874C37.952 35.3057 35.8946 34.1274 33.4197 32.8046C31.2266 31.6325 30.8292 29.4548 28.8085 28.3749C26.0312 26.8905 24.7103 24.7603 21.5209 23.2344C18.8973 21.9792 15.4234 21.2742 12.4835 20.176Z" fill="#A7A19B"/>
<path d="M135 14.2339C138.261 12.3921 144.601 12.2388 148.206 11.7153C152.617 11.0746 157.02 9.5631 161.5 9.5631C166.155 9.5631 169.452 11.0081 174 9.5631C178.652 8.08509 188.109 6.72751 193 6.72751C205.833 6.72751 213.301 2.12147 226 0L226 220H113H0V72.1863C3.9398 72.1863 9.43618 70.8135 13.1491 69.5068C17.6297 67.9299 20.95 64.0302 25.2249 62.3585C29.479 60.695 33.9538 58.6385 38.1594 56.7381C46.4612 52.9868 55.2646 53.89 64.2431 53.4095C68.168 53.1995 74.002 52.093 77.3923 49.9718C81.843 47.1872 85.7717 43.3229 90.3268 40.75C97.7232 36.5723 103.718 36.7308 111 32.5C120.76 26.8298 125.749 19.4593 135 14.2339Z" fill="#4C4C4C"/>
</g>
</svg>
