<svg width="100%" height="100%" viewBox="0 0 55 48" fill="none" xmlns="http://www.w3.org/2000/svg">
<path d="M4.93469 48C1.85405 48 -0.0702713 44.6639 1.47221 41.9972L24.0375 2.98598C25.5778 0.323053 29.4222 0.323057 30.9625 2.98598L53.5278 41.9972C55.0703 44.6639 53.146 48 50.0653 48H4.93469ZM27.5 39.9474C28.2598 39.9474 28.8968 39.6901 29.4108 39.1757C29.9248 38.6612 30.1818 38.0237 30.1818 37.2632C30.1818 36.5026 29.9248 35.8651 29.4108 35.3507C28.8968 34.8362 28.2598 34.5789 27.5 34.5789C26.7402 34.5789 26.1032 34.8362 25.5892 35.3507C25.0752 35.8651 24.8182 36.5026 24.8182 37.2632C24.8182 38.0237 25.0752 38.6612 25.5892 39.1757C26.1032 39.6901 26.7402 39.9474 27.5 39.9474ZM24.8182 29.2129C24.8182 30.694 26.0189 31.8947 27.5 31.8947C28.9811 31.8947 30.1818 30.694 30.1818 29.2129V21.1555C30.1818 19.6744 28.9811 18.4737 27.5 18.4737C26.0189 18.4737 24.8182 19.6744 24.8182 21.1555V29.2129Z" fill="#D44C45"/>
</svg>
